<svg width="175" height="50" viewBox="0 0 175 50" fill="none" xmlns="http://www.w3.org/2000/svg">
<circle cx="48" cy="25" r="24.5" stroke="white"/>
<path d="M45 32C46.594 27.5002 51 25.5 51 25.5C51 25.5 46.594 23.4998 45 19" stroke="white" stroke-miterlimit="10" stroke-linejoin="round"/>
<line x1="50.5" y1="25.5" x2="0.5" y2="25.5" stroke="white" stroke-linecap="round"/>
<path d="M93.8 30H94.79V17.4H84.998V30H85.988V18.336H93.8V30ZM97.6273 25.95C97.6273 28.38 99.3553 30.162 101.875 30.162C104.395 30.162 106.123 28.38 106.123 25.95C106.123 23.52 104.395 21.738 101.875 21.738C99.3553 21.738 97.6273 23.52 97.6273 25.95ZM98.6173 25.95C98.6173 23.988 100.003 22.62 101.875 22.62C103.783 22.62 105.133 24.006 105.133 25.95C105.133 27.912 103.783 29.28 101.875 29.28C99.9853 29.28 98.6173 27.894 98.6173 25.95ZM106.823 32.052H107.705V30H114.905V32.052H115.787V29.118H114.437V21.9H109.271L109.145 24.186C108.983 26.742 108.335 28.47 107.831 29.118H106.823V32.052ZM110.045 24.546L110.153 22.782H113.501V29.118H108.821C109.235 28.596 109.865 26.886 110.045 24.546ZM117.522 33.6H118.458V29.478C119.124 29.964 120.06 30.162 121.05 30.162C123.57 30.162 125.208 28.29 125.208 25.824C125.208 23.43 123.768 21.738 121.428 21.738C120.258 21.738 119.07 22.26 118.458 22.98V21.9H117.522V33.6ZM121.176 22.62C123.12 22.62 124.218 23.952 124.218 25.878C124.218 27.858 122.94 29.28 120.978 29.28C120.114 29.28 119.304 29.1 118.458 28.542V23.88C118.98 23.214 120.042 22.62 121.176 22.62ZM126.912 25.95C126.912 28.38 128.64 30.162 131.16 30.162C133.68 30.162 135.408 28.38 135.408 25.95C135.408 23.52 133.68 21.738 131.16 21.738C128.64 21.738 126.912 23.52 126.912 25.95ZM127.902 25.95C127.902 23.988 129.288 22.62 131.16 22.62C133.068 22.62 134.418 24.006 134.418 25.95C134.418 27.912 133.068 29.28 131.16 29.28C129.27 29.28 127.902 27.894 127.902 25.95ZM144.109 17.22C143.281 18.39 142.075 17.796 140.077 18.642C137.413 19.74 137.107 23.016 137.107 25.176C137.107 28.29 138.781 30.162 141.319 30.162C143.695 30.162 145.423 28.29 145.423 26.022C145.423 23.592 143.965 21.954 141.571 21.954C140.077 21.954 138.637 22.8 138.079 24.15H138.043C138.151 22.422 138.565 20.316 140.365 19.542C142.309 18.678 143.713 19.29 144.631 17.922L144.109 17.22ZM138.097 25.338C138.349 24.132 139.501 22.836 141.355 22.836C143.317 22.836 144.433 24.168 144.433 26.058C144.433 27.84 143.101 29.28 141.283 29.28C139.465 29.28 138.097 27.84 138.097 25.338ZM153.878 30H154.814V21.9H153.878V25.446H148.622V21.9H147.686V30H148.622V26.328H153.878V30ZM164.06 28.29C163.502 28.866 162.53 29.28 161.432 29.28C159.488 29.28 158.192 28.092 158.12 26.148H164.798C164.834 25.932 164.852 25.698 164.852 25.392C164.852 23.178 163.268 21.738 161.18 21.738C158.516 21.738 157.076 23.592 157.076 25.95C157.076 28.506 158.822 30.162 161.378 30.162C162.458 30.162 163.628 29.784 164.366 29.01L164.06 28.29ZM161.09 22.62C162.782 22.62 163.862 23.664 163.898 25.374H158.066C158.228 23.79 159.29 22.62 161.09 22.62ZM173.359 28.29C172.801 28.866 171.829 29.28 170.731 29.28C168.787 29.28 167.491 28.092 167.419 26.148H174.097C174.133 25.932 174.151 25.698 174.151 25.392C174.151 23.178 172.567 21.738 170.479 21.738C167.815 21.738 166.375 23.592 166.375 25.95C166.375 28.506 168.121 30.162 170.677 30.162C171.757 30.162 172.927 29.784 173.665 29.01L173.359 28.29ZM170.389 22.62C172.081 22.62 173.161 23.664 173.197 25.374H167.365C167.527 23.79 168.589 22.62 170.389 22.62Z" fill="white"/>
</svg>
